<svg width="31" height="31" viewBox="0 0 31 31" fill="none" xmlns="http://www.w3.org/2000/svg">
<path d="M14.2085 21.9585H16.7918V14.2085H14.2085V21.9585ZM15.5002 11.6252C15.8661 11.6252 16.1729 11.5014 16.4205 11.2538C16.668 11.0062 16.7918 10.6995 16.7918 10.3335C16.7918 9.96752 16.668 9.66075 16.4205 9.41318C16.1729 9.16561 15.8661 9.04183 15.5002 9.04183C15.1342 9.04183 14.8274 9.16561 14.5799 9.41318C14.3323 9.66075 14.2085 9.96752 14.2085 10.3335C14.2085 10.6995 14.3323 11.0062 14.5799 11.2538C14.8274 11.5014 15.1342 11.6252 15.5002 11.6252ZM15.5002 28.4168C13.7134 28.4168 12.0342 28.0778 10.4627 27.3996C8.89113 26.7215 7.52412 25.8012 6.36162 24.6387C5.19912 23.4762 4.27881 22.1092 3.60068 20.5377C2.92256 18.9661 2.5835 17.287 2.5835 15.5002C2.5835 13.7134 2.92256 12.0342 3.60068 10.4627C4.27881 8.89113 5.19912 7.52412 6.36162 6.36162C7.52412 5.19912 8.89113 4.27881 10.4627 3.60068C12.0342 2.92256 13.7134 2.5835 15.5002 2.5835C17.287 2.5835 18.9661 2.92256 20.5377 3.60068C22.1092 4.27881 23.4762 5.19912 24.6387 6.36162C25.8012 7.52412 26.7215 8.89113 27.3996 10.4627C28.0778 12.0342 28.4168 13.7134 28.4168 15.5002C28.4168 17.287 28.0778 18.9661 27.3996 20.5377C26.7215 22.1092 25.8012 23.4762 24.6387 24.6387C23.4762 25.8012 22.1092 26.7215 20.5377 27.3996C18.9661 28.0778 17.287 28.4168 15.5002 28.4168ZM15.5002 25.8335C18.3849 25.8335 20.8283 24.8325 22.8304 22.8304C24.8325 20.8283 25.8335 18.3849 25.8335 15.5002C25.8335 12.6154 24.8325 10.172 22.8304 8.16995C20.8283 6.16787 18.3849 5.16683 15.5002 5.16683C12.6154 5.16683 10.172 6.16787 8.16995 8.16995C6.16787 10.172 5.16683 12.6154 5.16683 15.5002C5.16683 18.3849 6.16787 20.8283 8.16995 22.8304C10.172 24.8325 12.6154 25.8335 15.5002 25.8335Z" fill="#4D9BFA"/>
</svg>
